<svg xmlns="http://www.w3.org/2000/svg" viewBox="0 0 1280 400" width="1280" height="400" role="img" aria-label="Open Source Cinema">
  <rect width="1280" height="400" fill="#0B0B0C"/>

  <!-- line-art motif: minimal exposure histogram, one bar clipping at the highlights -->
  <g>
    <rect x="690.0" y="288.9" width="6.0" height="31.1" fill="#3A3A3C"/>
    <rect x="701.0" y="286.4" width="6.0" height="33.6" fill="#3A3A3C"/>
    <rect x="712.0" y="283.0" width="6.0" height="37.0" fill="#3A3A3C"/>
    <rect x="723.0" y="278.7" width="6.0" height="41.3" fill="#3A3A3C"/>
    <rect x="734.0" y="273.1" width="6.0" height="46.9" fill="#3A3A3C"/>
    <rect x="745.0" y="266.1" width="6.0" height="53.9" fill="#3A3A3C"/>
    <rect x="756.0" y="257.7" width="6.0" height="62.3" fill="#3A3A3C"/>
    <rect x="767.0" y="247.6" width="6.0" height="72.4" fill="#3A3A3C"/>
    <rect x="778.0" y="236.0" width="6.0" height="84.0" fill="#3A3A3C"/>
    <rect x="789.0" y="223.0" width="6.0" height="97.0" fill="#3A3A3C"/>
    <rect x="800.0" y="208.7" width="6.0" height="111.3" fill="#3A3A3C"/>
    <rect x="811.0" y="193.6" width="6.0" height="126.4" fill="#3A3A3C"/>
    <rect x="822.0" y="178.0" width="6.0" height="142.0" fill="#3A3A3C"/>
    <rect x="833.0" y="162.7" width="6.0" height="157.3" fill="#3A3A3C"/>
    <rect x="844.0" y="148.2" width="6.0" height="171.8" fill="#3A3A3C"/>
    <rect x="855.0" y="135.2" width="6.0" height="184.8" fill="#3A3A3C"/>
    <rect x="866.0" y="124.4" width="6.0" height="195.6" fill="#3A3A3C"/>
    <rect x="877.0" y="116.3" width="6.0" height="203.7" fill="#3A3A3C"/>
    <rect x="888.0" y="111.4" width="6.0" height="208.6" fill="#3A3A3C"/>
    <rect x="899.0" y="110.0" width="6.0" height="210.0" fill="#3A3A3C"/>
    <rect x="910.0" y="112.1" width="6.0" height="207.9" fill="#3A3A3C"/>
    <rect x="921.0" y="117.7" width="6.0" height="202.3" fill="#3A3A3C"/>
    <rect x="932.0" y="126.4" width="6.0" height="193.6" fill="#3A3A3C"/>
    <rect x="943.0" y="137.7" width="6.0" height="182.3" fill="#3A3A3C"/>
    <rect x="954.0" y="151.0" width="6.0" height="169.0" fill="#3A3A3C"/>
    <rect x="965.0" y="165.7" width="6.0" height="154.3" fill="#3A3A3C"/>
    <rect x="976.0" y="181.1" width="6.0" height="138.9" fill="#3A3A3C"/>
    <rect x="987.0" y="196.6" width="6.0" height="123.4" fill="#3A3A3C"/>
    <rect x="998.0" y="211.5" width="6.0" height="108.5" fill="#3A3A3C"/>
    <rect x="1009.0" y="225.3" width="6.0" height="94.7" fill="#3A3A3C"/>
    <rect x="1020.0" y="237.3" width="6.0" height="82.7" fill="#3A3A3C"/>
    <rect x="1031.0" y="246.9" width="6.0" height="73.1" fill="#3A3A3C"/>
    <rect x="1042.0" y="253.4" width="6.0" height="66.6" fill="#3A3A3C"/>
    <rect x="1053.0" y="256.5" width="6.0" height="63.5" fill="#3A3A3C"/>
    <rect x="1064.0" y="256.6" width="6.0" height="63.4" fill="#3A3A3C"/>
    <rect x="1075.0" y="255.0" width="6.0" height="65.0" fill="#3A3A3C"/>
    <rect x="1086.0" y="254.0" width="6.0" height="66.0" fill="#3A3A3C"/>
    <rect x="1097.0" y="255.5" width="6.0" height="64.5" fill="#3A3A3C"/>
    <rect x="1108.0" y="260.3" width="6.0" height="59.7" fill="#3A3A3C"/>
    <rect x="1119.0" y="267.8" width="6.0" height="52.2" fill="#3A3A3C"/>
    <rect x="1130.0" y="276.0" width="6.0" height="44.0" fill="#3A3A3C"/>
    <rect x="1141.0" y="283.2" width="6.0" height="36.8" fill="#3A3A3C"/>
    <rect x="1152.0" y="288.4" width="6.0" height="31.6" fill="#3A3A3C"/>
    <rect x="1163.0" y="291.7" width="6.0" height="28.3" fill="#3A3A3C"/>
    <rect x="1174.0" y="293.4" width="6.0" height="26.6" fill="#3A3A3C"/>
    <rect x="1185.0" y="120.5" width="6.0" height="199.5" fill="#FF4400"/>

    <!-- baseline axis -->
    <line x1="682" y1="320" x2="1198" y2="320" stroke="#3A3A3C" stroke-width="1"/>
    <!-- clipping boundary marker at the highlight edge -->
    <line x1="1194" y1="96" x2="1194" y2="324" stroke="#FF4400" stroke-width="1" stroke-dasharray="2 5" opacity="0.55"/>
  </g>

  <!-- title block, left half, vertically centered -->
  <text x="96" y="196" font-family="Helvetica Neue, Helvetica, Arial, sans-serif" font-weight="300" font-size="64" letter-spacing="1.5" fill="#EDEAE3">Open Source Cinema</text>
  <text x="98" y="240" font-family="Helvetica Neue, Helvetica, Arial, sans-serif" font-weight="400" font-size="22" letter-spacing="0.4" fill="#8F8B84">RAW filmmaking with hacked cameras and open hardware.</text>
</svg>
